<?xml version="1.0" encoding="UTF-8"?>
<svg version="1.1" xmlns="http://www.w3.org/2000/svg" width="132" height="135">
<path d="M0 0 C43.56 0 87.12 0 132 0 C132 44.55 132 89.1 132 135 C88.44 135 44.88 135 0 135 C0 90.45 0 45.9 0 0 Z " fill="#6844FA" transform="translate(0,0)"/>
<path d="M0 0 C2.22889496 -0.05428973 4.45817471 -0.09292338 6.6875 -0.125 C8.54955078 -0.15980469 8.54955078 -0.15980469 10.44921875 -0.1953125 C13.88275917 -0.00644889 15.88025286 0.70348171 19 2 C21.89651829 2.23971089 21.89651829 2.23971089 24.8125 2.125 C25.78832031 2.10695312 26.76414063 2.08890625 27.76953125 2.0703125 C28.50558594 2.04710937 29.24164063 2.02390625 30 2 C30 1.34 30 0.68 30 0 C32.83570504 -0.16359837 35.66180613 -0.28157983 38.5 -0.375 C39.29148438 -0.42527344 40.08296875 -0.47554687 40.8984375 -0.52734375 C46.50357483 -0.665175 49.94058799 0.53022482 54.32943726 4.01605225 C57.52958158 7.81651958 56.99884605 12.07913379 56.81640625 16.83203125 C56.80298439 18.38056038 56.80298439 18.38056038 56.78929138 19.96037292 C56.75125054 23.24623449 56.65702119 26.52782847 56.5625 29.8125 C56.5309353 32.04096792 56.50290096 34.26948883 56.47851562 36.49804688 C56.42005375 40.55510076 56.35379384 44.61131016 56.24047852 48.66723633 C56.20761497 49.88918449 56.20761497 49.88918449 56.17408752 51.13581848 C56 53 56 53 55 54 C51.51074532 53.65791621 48.41973064 53.15511784 45.125 51.9375 C37.91041692 49.77312508 32.78225136 50.92879184 26 54 C22.05226656 54.50396597 20.03786349 54.0154021 16.3125 52.5 C11.29279861 50.4728129 6.34194112 50.34382456 1 51 C-1.81780534 52.38885248 -1.81780534 52.38885248 -4 54 C-6.75 54.25 -6.75 54.25 -9 54 C-10.59735222 52.40264778 -10.13527765 50.72425616 -10.14526367 48.51196289 C-10.15164352 47.55749771 -10.15802338 46.60303253 -10.16459656 45.61964417 C-10.16570938 44.58113815 -10.1668222 43.54263214 -10.16796875 42.47265625 C-10.17129715 41.41340439 -10.17462555 40.35415253 -10.17805481 39.26280212 C-10.18312869 37.01740962 -10.18546299 34.77200955 -10.18530273 32.52661133 C-10.18748841 29.08076622 -10.20563721 25.63524148 -10.22460938 22.18945312 C-10.22754329 20.01302193 -10.2295281 17.83658921 -10.23046875 15.66015625 C-10.23765427 14.62367447 -10.24483978 13.58719269 -10.25224304 12.51930237 C-10.24916641 11.56168503 -10.24608978 10.60406769 -10.24291992 9.61743164 C-10.24434494 8.77217422 -10.24576996 7.92691681 -10.24723816 7.05604553 C-10 5 -10 5 -8 3 C-5.34462628 2.43479997 -2.70855287 2.26211802 0 2 C0 1.34 0 0.68 0 0 Z " fill="#F7F5FE" transform="translate(44,39)"/>
<path d="M0 0 C1.63775391 -0.00773437 1.63775391 -0.00773437 3.30859375 -0.015625 C6.5625 0.25 6.5625 0.25 12.5625 2.25 C12.5625 14.13 12.5625 26.01 12.5625 38.25 C4.6425 38.25 -3.2775 38.25 -11.4375 38.25 C-11.4375 26.37 -11.4375 14.49 -11.4375 2.25 C-6.88556356 0.42922542 -4.71456234 -0.02221231 0 0 Z " fill="#7A46FA" transform="translate(81.4375,45.75)"/>
<path d="M0 0 C0.88816406 -0.00515625 1.77632812 -0.0103125 2.69140625 -0.015625 C5.4375 0.25 5.4375 0.25 11.4375 2.25 C11.4375 14.13 11.4375 26.01 11.4375 38.25 C3.5175 38.25 -4.4025 38.25 -12.5625 38.25 C-12.5625 26.37 -12.5625 14.49 -12.5625 2.25 C-4.59388374 -0.0267475 -4.59388374 -0.0267475 0 0 Z " fill="#6751FB" transform="translate(52.5625,45.75)"/>
</svg>
